<?xml version="1.0" encoding="utf-8"?>
<!-- Generator: Adobe Illustrator 27.1.1, SVG Export Plug-In . SVG Version: 6.00 Build 0)  -->
<svg version="1.1" id="Layer_1" xmlns="http://www.w3.org/2000/svg" xmlns:xlink="http://www.w3.org/1999/xlink" x="0px" y="0px"
	 viewBox="0 0 210 70" style="enable-background:new 0 0 210 70;" xml:space="preserve">
<style type="text/css">
	.st0{fill:#FBC820;}
	.st1{fill:#5069B0;}
	.st2{fill:#575756;}
</style>
<g>
	<path class="st0" d="M192.9,40.6l-0.1,0.1l-0.2,0.2v0l-3.3,3.3c-4.4,3.8-8.8,3.4-12.3-0.1c-0.3-0.3-7.2-7.2-8-8
		c-0.3,0.3-0.7,0.7-0.9,1c-1.7,1.7-3.4,6.1,0,9.9l4.3,4.4c0.4,0.4,0.8,0.8,1.2,1.2l0.3,0.3l0,0l4.9,4.8l4.3,4.3
		c4.1,3.6,8.6,1.5,10.2-0.2l4.1-4.2l3.7-3.7c0.5-0.5,0.2-0.2,0.6-0.6c0.4-0.4,0.8-0.8,1.3-1.3c1.7-1.7,3.4-6-0.1-9.9l-4.3-4.3
		c-0.4-0.4-0.8-0.8-1.2-1.2l-0.3-0.3C195.9,37.6,193.2,40.3,192.9,40.6L192.9,40.6z"/>
	<path class="st0" d="M159.1,29.4l0.1-0.1l0.2-0.2l0,0l3.3-3.3c4.4-3.8,8.8-3.4,12.3,0.1c0.3,0.3,7.2,7.2,8,8c0.3-0.3,0.7-0.7,1-0.9
		c1.7-1.7,3.4-6.1,0-10l-4.4-4.4c-0.4-0.4-0.8-0.8-1.2-1.2l-0.3-0.3v0l-4.9-4.8L168.8,8c-4.1-3.6-8.7-1.5-10.2,0.2l-4.2,4.2
		l-3.7,3.7c-0.5,0.5-0.2,0.1-0.6,0.6c-0.4,0.4-0.8,0.8-1.3,1.3c-1.7,1.7-3.4,6.1,0,10l4.3,4.3c0.4,0.4,0.8,0.8,1.2,1.2l0.3,0.3
		C156.1,32.4,158.8,29.7,159.1,29.4L159.1,29.4z"/>
	<path class="st1" d="M181.6,18.1l0.1,0.1l0.2,0.2h0l3.3,3.3c3.8,4.4,3.4,8.8-0.1,12.3c-0.3,0.3-7.1,7.2-8,8c0.3,0.3,0.7,0.7,1,1
		c1.7,1.7,6,3.4,9.9,0l4.4-4.4c0.4-0.4,0.8-0.8,1.2-1.2l0.3-0.3h0l4.8-4.9l4.3-4.3c3.6-4.1,1.5-8.7-0.2-10.2l-4.2-4.2l-3.7-3.7
		c-0.5-0.5-0.2-0.2-0.6-0.6c-0.4-0.4-0.8-0.8-1.3-1.3c-1.7-1.7-6-3.4-9.9,0.1l-4.3,4.3c-0.4,0.4-0.8,0.8-1.2,1.2l-0.3,0.3
		C178.6,15.1,181.3,17.8,181.6,18.1L181.6,18.1z"/>
	<path class="st1" d="M170.4,51.9l-0.1-0.1l-0.2-0.2l0,0l-3.3-3.3c-3.8-4.4-3.4-8.8,0.1-12.3c0.3-0.3,7.1-7.2,8-8
		c-0.3-0.3-0.7-0.7-0.9-0.9c-1.7-1.7-6.1-3.4-10,0l-4.4,4.3c-0.4,0.4-0.8,0.8-1.2,1.2l-0.3,0.3l0,0l-4.8,4.9l-4.3,4.3
		c-3.6,4.1-1.5,8.6,0.2,10.2l4.2,4.1l3.7,3.7c0.5,0.5,0.1,0.2,0.6,0.6c0.4,0.4,0.8,0.8,1.3,1.3c1.7,1.7,6.1,3.4,10-0.1l4.3-4.3
		c0.4-0.4,0.8-0.8,1.2-1.2l0.3-0.3C173.4,54.9,170.7,52.2,170.4,51.9L170.4,51.9z"/>
	<g>
		<path class="st2" d="M136.4,29.6c-0.3-1.2-0.9-2.3-1.5-3.3c-0.7-1-1.5-1.8-2.4-2.4c-0.9-0.6-2-0.9-3.2-0.9H113
			c-0.6,0-1,0.2-1.4,0.7c-0.4,0.4-0.6,1-0.6,1.6c0,0.6,0.2,1.2,0.6,1.6c0.4,0.4,0.9,0.7,1.4,0.7h15.4c1,0,1.8,0.2,2.4,0.6
			c0.6,0.4,1.1,0.9,1.4,1.4c0.3,0.6,0.6,1.2,0.7,1.8c0.1,0.7,0.2,1.3,0.2,1.8c0,0.6-0.1,1.2-0.2,1.8c-0.1,0.7-0.4,1.3-0.7,1.8
			c-0.3,0.6-0.8,1-1.4,1.4c-0.6,0.4-1.4,0.6-2.4,0.6H113c-0.6,0-1,0.2-1.4,0.7c-0.4,0.4-0.6,1-0.6,1.6c0,0.6,0.2,1.2,0.6,1.6
			c0.4,0.4,0.9,0.7,1.4,0.7h16.7c1.1,0,2.1-0.3,3-0.9c0.9-0.6,1.6-1.4,2.3-2.4c0.6-1,1.1-2.1,1.4-3.3c0.3-1.2,0.5-2.4,0.5-3.5
			C136.9,32,136.8,30.8,136.4,29.6z M29,26.4c-0.6-1-1.4-1.8-2.3-2.4c-0.9-0.6-1.9-1-3-1h-11c-1.2,0-2.3,0.3-3.2,0.9
			c-0.9,0.6-1.7,1.4-2.4,2.4c-0.7,1-1.2,2.1-1.5,3.3C5.2,30.8,5,32,5,33.2c0,1.1,0.2,2.3,0.5,3.5c0.3,1.2,0.8,2.3,1.4,3.2
			c0.6,1,1.4,1.8,2.3,2.4c0.9,0.6,1.9,1,3,1h11c1.2,0,2.3-0.3,3.2-0.9c0.9-0.6,1.7-1.4,2.4-2.4c0.7-1,1.2-2.1,1.5-3.3
			c0.3-1.2,0.5-2.4,0.5-3.6c0-1.2-0.2-2.3-0.5-3.5C30.1,28.5,29.6,27.4,29,26.4z M26.8,34.8c-0.1,0.7-0.4,1.3-0.7,1.8
			c-0.3,0.6-0.8,1-1.4,1.4c-0.6,0.4-1.4,0.6-2.3,0.6h-8.8c-1,0-1.8-0.2-2.4-0.6c-0.6-0.4-1.1-0.9-1.4-1.4c-0.3-0.6-0.6-1.2-0.7-1.8
			c-0.1-0.7-0.2-1.3-0.2-1.8c0-0.6,0.1-1.2,0.2-1.8c0.1-0.7,0.4-1.3,0.7-1.8c0.3-0.6,0.8-1,1.4-1.4c0.6-0.4,1.4-0.6,2.4-0.6h8.8
			c0.9,0,1.7,0.2,2.3,0.6c0.6,0.4,1.1,0.9,1.4,1.4c0.3,0.6,0.6,1.2,0.7,1.8c0.1,0.7,0.2,1.3,0.2,1.8C27,33.5,27,34.1,26.8,34.8z
			 M91.3,40.1c0.6,0.9,1.3,1.7,2.2,2.3c0.9,0.6,1.9,1,3,1h4.6c1.2,0,2.3-0.3,3.2-0.9c0.9-0.6,1.7-1.4,2.4-2.4c0.7-1,1.2-2.1,1.5-3.3
			c0.3-1.2,0.5-2.4,0.5-3.6v-7.9c0-0.6-0.2-1.1-0.6-1.6c-0.4-0.4-0.9-0.7-1.4-0.7c-0.6,0-1,0.2-1.4,0.7c-0.4,0.4-0.6,1-0.6,1.6v7.9
			c0,0.6-0.1,1.2-0.2,1.8c-0.1,0.7-0.4,1.3-0.7,1.8c-0.3,0.6-0.8,1-1.4,1.4c-0.6,0.4-1.4,0.6-2.3,0.6H98c-1,0-1.8-0.2-2.4-0.6
			c-0.6-0.4-1.1-0.9-1.4-1.4c-0.3-0.6-0.6-1.2-0.7-1.8c-0.1-0.7-0.2-1.3-0.2-1.8h0c0,0,0,0,0-0.1c0-1.2-0.2-2.4-0.5-3.6
			c-0.3-1.2-0.9-2.3-1.5-3.3c-0.7-1-1.5-1.8-2.4-2.4c-0.9-0.6-2-0.9-3.2-0.9H69.3c-0.6,0-1,0.2-1.4,0.7c-0.4,0.4-0.6,1-0.6,1.6
			c0,0.6,0.2,1.2,0.6,1.6c0.4,0.4,0.9,0.7,1.4,0.7h15.4c1,0,1.8,0.2,2.4,0.6c0.6,0.4,1.1,0.9,1.4,1.4c0.3,0.6,0.6,1.2,0.7,1.8
			c0.1,0.7,0.2,1.3,0.2,1.8c0,0,0,0,0,0.1l0,0c0,0.3,0,0.7-0.1,1c0,0.3-0.1,0.5-0.1,0.8c-0.1,0.7-0.4,1.3-0.7,1.8
			c-0.3,0.6-0.8,1-1.4,1.4c-0.6,0.4-1.4,0.6-2.4,0.6H69.3c-0.6,0-1,0.2-1.4,0.7c-0.4,0.4-0.6,1-0.6,1.6c0,0.6,0.2,1.2,0.6,1.6
			c0.4,0.4,0.9,0.7,1.4,0.7H86c1.1,0,2.1-0.3,3-0.9C89.9,41.8,90.7,41,91.3,40.1z M40.5,21.7h23.7c0.3,0,0.6-0.1,0.8-0.3
			c0.2-0.2,0.3-0.5,0.3-0.8c0-0.3-0.1-0.5-0.3-0.8c-0.2-0.2-0.5-0.3-0.8-0.3H40.5c-0.3,0-0.6,0.1-0.8,0.3c-0.2,0.2-0.3,0.5-0.3,0.8
			c0,0.3,0.1,0.5,0.3,0.8C39.9,21.6,40.1,21.7,40.5,21.7z M65.2,32.7c-0.5-0.6-1.1-1-1.8-1.3c-0.7-0.3-1.4-0.5-2.2-0.5H43.8
			c-0.4,0-0.8-0.2-1.1-0.5c-0.3-0.3-0.5-0.7-0.5-1.2c0-0.5,0.2-0.9,0.5-1.2c0.3-0.3,0.7-0.5,1.1-0.5h19.8c0.6,0,1-0.2,1.4-0.7
			c0.4-0.4,0.6-1,0.6-1.6c0-0.6-0.2-1.1-0.6-1.6c-0.4-0.4-0.9-0.7-1.4-0.7H43.9c-0.8,0-1.5,0.2-2.2,0.5c-0.7,0.3-1.2,0.8-1.7,1.3
			c-0.5,0.6-0.9,1.2-1.2,2c-0.3,0.7-0.4,1.6-0.4,2.4c0,0.9,0.1,1.7,0.4,2.4c0.3,0.7,0.7,1.4,1.2,2c0.5,0.6,1.1,1,1.7,1.3
			c0.7,0.3,1.4,0.5,2.2,0.5h17.5c0.4,0,0.8,0.2,1.1,0.5c0.3,0.3,0.5,0.8,0.5,1.3c0,0.5-0.2,0.9-0.5,1.2c-0.3,0.3-0.7,0.5-1.1,0.5
			c0,0-16.3,0-22.1,0l0,0.1c-1,0-1.4,0-1.4,0c-0.4,0-0.8-0.2-1.1-0.5c-0.3-0.3-0.5-0.7-0.5-1.2V25.3c0-0.6-0.2-1.1-0.6-1.6
			c-0.4-0.4-0.9-0.7-1.4-0.7c-0.6,0-1,0.2-1.4,0.7c-0.4,0.4-0.6,1-0.6,1.6v11.9c0,0.9,0.2,1.7,0.5,2.4c0.3,0.7,0.7,1.4,1.2,2
			c0.5,0.6,1.1,1,1.8,1.3c0.7,0.3,1.4,0.5,2.2,0.5c0,0,1.5,0,7.1,0v-0.1h16.1c0.8,0,1.5-0.2,2.2-0.5c0.7-0.3,1.3-0.7,1.8-1.3
			c0.5-0.6,0.9-1.2,1.2-2c0.3-0.7,0.4-1.6,0.4-2.4c0-0.9-0.1-1.7-0.4-2.4C66.1,34,65.7,33.3,65.2,32.7z M107,46.5H91.8
			c-0.6,0-1,0.2-1.4,0.5c-0.4,0.3-0.6,0.8-0.6,1.3c0,0.5,0.2,0.9,0.6,1.3c0.4,0.3,0.9,0.5,1.4,0.5H107c0.5,0,1-0.2,1.4-0.5
			c0.4-0.3,0.6-0.8,0.6-1.3c0-0.5-0.2-0.9-0.6-1.3C108.1,46.6,107.6,46.5,107,46.5z"/>
	</g>
</g>
</svg>
